<?xml version="1.0" encoding="UTF-8" standalone="no"?>
<!DOCTYPE svg PUBLIC "-//W3C//DTD SVG 1.1//EN"
 "http://www.w3.org/Graphics/SVG/1.1/DTD/svg11.dtd">
<!-- Generated by graphviz version 2.42.3 (20191010.1750)
 -->
<!-- Title: controllers_diagram Pages: 1 -->
<svg width="617pt" height="533pt"
 viewBox="0.00 0.00 617.44 533.00" xmlns="http://www.w3.org/2000/svg" xmlns:xlink="http://www.w3.org/1999/xlink">
<g id="graph0" class="graph" transform="scale(1 1) rotate(0) translate(4 529)">
<title>controllers_diagram</title>
<polygon fill="transparent" stroke="transparent" points="-4,4 -4,-529 613.44,-529 613.44,4 -4,4"/>
<!-- _diagram_info -->
<g id="node1" class="node">
<title>_diagram_info</title>
<text text-anchor="start" x="344" y="-106.6" font-family="Times,serif" font-size="13.00">Controllers diagram</text>
<text text-anchor="start" x="344" y="-93.6" font-family="Times,serif" font-size="13.00">Date: Apr 28 2020 &#45; 14:43</text>
<text text-anchor="start" x="344" y="-80.6" font-family="Times,serif" font-size="13.00">Migration version: 20200428183514</text>
<text text-anchor="start" x="344" y="-67.6" font-family="Times,serif" font-size="13.00">Generated by RailRoady 1.5.3</text>
<text text-anchor="start" x="344" y="-54.6" font-family="Times,serif" font-size="13.00">http://railroady.prestonlee.com</text>
</g>
<!-- ApplicationController -->
<g id="node2" class="node">
<title>ApplicationController</title>
<path fill="none" stroke="black" d="M28,-128.5C28,-128.5 143.64,-128.5 143.64,-128.5 149.64,-128.5 155.64,-134.5 155.64,-140.5 155.64,-140.5 155.64,-208.5 155.64,-208.5 155.64,-214.5 149.64,-220.5 143.64,-220.5 143.64,-220.5 28,-220.5 28,-220.5 22,-220.5 16,-214.5 16,-208.5 16,-208.5 16,-140.5 16,-140.5 16,-134.5 22,-128.5 28,-128.5"/>
<text text-anchor="middle" x="85.82" y="-205.3" font-family="Times,serif" font-size="14.00">ApplicationController</text>
<polyline fill="none" stroke="black" points="16,-198.5 155.64,-198.5 "/>
<polyline fill="none" stroke="black" points="16,-174.5 155.64,-174.5 "/>
<polyline fill="none" stroke="black" points="16,-150.5 155.64,-150.5 "/>
<text text-anchor="start" x="24" y="-135.3" font-family="Times,serif" font-size="14.00">_layout</text>
</g>
<!-- Users::OmniauthCallbacksController -->
<g id="node3" class="node">
<title>Users::OmniauthCallbacksController</title>
<path fill="none" stroke="black" d="M348,-160.5C348,-160.5 548.41,-160.5 548.41,-160.5 554.41,-160.5 560.41,-166.5 560.41,-172.5 560.41,-172.5 560.41,-240.5 560.41,-240.5 560.41,-246.5 554.41,-252.5 548.41,-252.5 548.41,-252.5 348,-252.5 348,-252.5 342,-252.5 336,-246.5 336,-240.5 336,-240.5 336,-172.5 336,-172.5 336,-166.5 342,-160.5 348,-160.5"/>
<text text-anchor="middle" x="448.2" y="-237.3" font-family="Times,serif" font-size="14.00">Users::OmniauthCallbacksController</text>
<polyline fill="none" stroke="black" points="336,-230.5 560.41,-230.5 "/>
<polyline fill="none" stroke="black" points="336,-206.5 560.41,-206.5 "/>
<polyline fill="none" stroke="black" points="336,-182.5 560.41,-182.5 "/>
<text text-anchor="start" x="344" y="-167.3" font-family="Times,serif" font-size="14.00">_layout</text>
</g>
<!-- Users::PasswordsController -->
<g id="node4" class="node">
<title>Users::PasswordsController</title>
<path fill="none" stroke="black" d="M28,-0.5C28,-0.5 176.32,-0.5 176.32,-0.5 182.32,-0.5 188.32,-6.5 188.32,-12.5 188.32,-12.5 188.32,-80.5 188.32,-80.5 188.32,-86.5 182.32,-92.5 176.32,-92.5 176.32,-92.5 28,-92.5 28,-92.5 22,-92.5 16,-86.5 16,-80.5 16,-80.5 16,-12.5 16,-12.5 16,-6.5 22,-0.5 28,-0.5"/>
<text text-anchor="middle" x="102.16" y="-77.3" font-family="Times,serif" font-size="14.00">Users::PasswordsController</text>
<polyline fill="none" stroke="black" points="16,-70.5 188.32,-70.5 "/>
<polyline fill="none" stroke="black" points="16,-46.5 188.32,-46.5 "/>
<polyline fill="none" stroke="black" points="16,-22.5 188.32,-22.5 "/>
<text text-anchor="start" x="24" y="-7.3" font-family="Times,serif" font-size="14.00">_layout</text>
</g>
<!-- Users::SessionsController -->
<g id="node5" class="node">
<title>Users::SessionsController</title>
<path fill="none" stroke="black" d="M460,-432.5C460,-432.5 597.44,-432.5 597.44,-432.5 603.44,-432.5 609.44,-438.5 609.44,-444.5 609.44,-444.5 609.44,-512.5 609.44,-512.5 609.44,-518.5 603.44,-524.5 597.44,-524.5 597.44,-524.5 460,-524.5 460,-524.5 454,-524.5 448,-518.5 448,-512.5 448,-512.5 448,-444.5 448,-444.5 448,-438.5 454,-432.5 460,-432.5"/>
<text text-anchor="middle" x="528.72" y="-509.3" font-family="Times,serif" font-size="14.00">Users::SessionsController</text>
<polyline fill="none" stroke="black" points="448,-502.5 609.44,-502.5 "/>
<polyline fill="none" stroke="black" points="448,-478.5 609.44,-478.5 "/>
<polyline fill="none" stroke="black" points="448,-454.5 609.44,-454.5 "/>
<text text-anchor="start" x="456" y="-439.3" font-family="Times,serif" font-size="14.00">_layout</text>
</g>
<!-- Users::UnlocksController -->
<g id="node6" class="node">
<title>Users::UnlocksController</title>
<path fill="none" stroke="black" d="M12,-256.5C12,-256.5 147.87,-256.5 147.87,-256.5 153.87,-256.5 159.87,-262.5 159.87,-268.5 159.87,-268.5 159.87,-336.5 159.87,-336.5 159.87,-342.5 153.87,-348.5 147.87,-348.5 147.87,-348.5 12,-348.5 12,-348.5 6,-348.5 0,-342.5 0,-336.5 0,-336.5 0,-268.5 0,-268.5 0,-262.5 6,-256.5 12,-256.5"/>
<text text-anchor="middle" x="79.93" y="-333.3" font-family="Times,serif" font-size="14.00">Users::UnlocksController</text>
<polyline fill="none" stroke="black" points="0,-326.5 159.87,-326.5 "/>
<polyline fill="none" stroke="black" points="0,-302.5 159.87,-302.5 "/>
<polyline fill="none" stroke="black" points="0,-278.5 159.87,-278.5 "/>
<text text-anchor="start" x="8" y="-263.3" font-family="Times,serif" font-size="14.00">_layout</text>
</g>
<!-- Users::ConfirmationsController -->
<g id="node7" class="node">
<title>Users::ConfirmationsController</title>
<path fill="none" stroke="black" d="M124,-384.5C124,-384.5 293.32,-384.5 293.32,-384.5 299.32,-384.5 305.32,-390.5 305.32,-396.5 305.32,-396.5 305.32,-464.5 305.32,-464.5 305.32,-470.5 299.32,-476.5 293.32,-476.5 293.32,-476.5 124,-476.5 124,-476.5 118,-476.5 112,-470.5 112,-464.5 112,-464.5 112,-396.5 112,-396.5 112,-390.5 118,-384.5 124,-384.5"/>
<text text-anchor="middle" x="208.66" y="-461.3" font-family="Times,serif" font-size="14.00">Users::ConfirmationsController</text>
<polyline fill="none" stroke="black" points="112,-454.5 305.32,-454.5 "/>
<polyline fill="none" stroke="black" points="112,-430.5 305.32,-430.5 "/>
<polyline fill="none" stroke="black" points="112,-406.5 305.32,-406.5 "/>
<text text-anchor="start" x="120" y="-391.3" font-family="Times,serif" font-size="14.00">_layout</text>
</g>
<!-- Users::RegistrationsController -->
<g id="node8" class="node">
<title>Users::RegistrationsController</title>
<path fill="none" stroke="black" d="M348,-288.5C348,-288.5 535.15,-288.5 535.15,-288.5 541.15,-288.5 547.15,-294.5 547.15,-300.5 547.15,-300.5 547.15,-380.5 547.15,-380.5 547.15,-386.5 541.15,-392.5 535.15,-392.5 535.15,-392.5 348,-392.5 348,-392.5 342,-392.5 336,-386.5 336,-380.5 336,-380.5 336,-300.5 336,-300.5 336,-294.5 342,-288.5 348,-288.5"/>
<text text-anchor="middle" x="441.58" y="-377.3" font-family="Times,serif" font-size="14.00">Users::RegistrationsController</text>
<polyline fill="none" stroke="black" points="336,-370.5 547.15,-370.5 "/>
<text text-anchor="start" x="344" y="-355.3" font-family="Times,serif" font-size="14.00">configure_account_update_params</text>
<text text-anchor="start" x="344" y="-341.3" font-family="Times,serif" font-size="14.00">configure_sign_up_params</text>
<polyline fill="none" stroke="black" points="336,-334.5 547.15,-334.5 "/>
<polyline fill="none" stroke="black" points="336,-310.5 547.15,-310.5 "/>
<text text-anchor="start" x="344" y="-295.3" font-family="Times,serif" font-size="14.00">_layout</text>
</g>
<!-- TweetsController -->
<g id="node9" class="node">
<title>TweetsController</title>
<path fill="none" stroke="black" d="M204,-128.5C204,-128.5 293,-128.5 293,-128.5 299,-128.5 305,-134.5 305,-140.5 305,-140.5 305,-318.5 305,-318.5 305,-324.5 299,-330.5 293,-330.5 293,-330.5 204,-330.5 204,-330.5 198,-330.5 192,-324.5 192,-318.5 192,-318.5 192,-140.5 192,-140.5 192,-134.5 198,-128.5 204,-128.5"/>
<text text-anchor="middle" x="248.5" y="-315.3" font-family="Times,serif" font-size="14.00">TweetsController</text>
<polyline fill="none" stroke="black" points="192,-308.5 305,-308.5 "/>
<text text-anchor="start" x="200" y="-293.3" font-family="Times,serif" font-size="14.00">create</text>
<text text-anchor="start" x="200" y="-279.3" font-family="Times,serif" font-size="14.00">destroy</text>
<text text-anchor="start" x="200" y="-265.3" font-family="Times,serif" font-size="14.00">index</text>
<text text-anchor="start" x="200" y="-251.3" font-family="Times,serif" font-size="14.00">like</text>
<text text-anchor="start" x="200" y="-237.3" font-family="Times,serif" font-size="14.00">new</text>
<text text-anchor="start" x="200" y="-223.3" font-family="Times,serif" font-size="14.00">retweet</text>
<text text-anchor="start" x="200" y="-209.3" font-family="Times,serif" font-size="14.00">unlike</text>
<polyline fill="none" stroke="black" points="192,-202.5 305,-202.5 "/>
<polyline fill="none" stroke="black" points="192,-178.5 305,-178.5 "/>
<text text-anchor="start" x="200" y="-163.3" font-family="Times,serif" font-size="14.00">_layout</text>
<text text-anchor="start" x="200" y="-149.3" font-family="Times,serif" font-size="14.00">retweet_params</text>
<text text-anchor="start" x="200" y="-135.3" font-family="Times,serif" font-size="14.00">tweet_params</text>
</g>
</g>
</svg>
