<?xml version="1.0" encoding="UTF-8" standalone="no"?>
<!DOCTYPE svg PUBLIC "-//W3C//DTD SVG 1.1//EN"
 "http://www.w3.org/Graphics/SVG/1.1/DTD/svg11.dtd">
<!-- Generated by graphviz version 2.42.3 (20191010.1750)
 -->
<!-- Title: models_diagram Pages: 1 -->
<svg width="581pt" height="227pt"
 viewBox="0.00 0.00 581.08 227.00" xmlns="http://www.w3.org/2000/svg" xmlns:xlink="http://www.w3.org/1999/xlink">
<g id="graph0" class="graph" transform="scale(1 1) rotate(0) translate(4 223)">
<title>models_diagram</title>
<polygon fill="transparent" stroke="transparent" points="-4,4 -4,-223 577.08,-223 577.08,4 -4,4"/>
<!-- _diagram_info -->
<g id="node1" class="node">
<title>_diagram_info</title>
<text text-anchor="start" x="8" y="-204.6" font-family="Times,serif" font-size="13.00">Models diagram</text>
<text text-anchor="start" x="8" y="-191.6" font-family="Times,serif" font-size="13.00">Date: May 11 2020 &#45; 23:58</text>
<text text-anchor="start" x="8" y="-178.6" font-family="Times,serif" font-size="13.00">Migration version: 20200512035316</text>
<text text-anchor="start" x="8" y="-165.6" font-family="Times,serif" font-size="13.00">Generated by RailRoady 1.5.3</text>
<text text-anchor="start" x="8" y="-152.6" font-family="Times,serif" font-size="13.00">http://railroady.prestonlee.com</text>
</g>
<!-- Tweet -->
<g id="node2" class="node">
<title>Tweet</title>
<ellipse fill="none" stroke="black" cx="128.69" cy="-91" rx="31.67" ry="18"/>
<text text-anchor="middle" x="128.69" y="-86.8" font-family="Times,serif" font-size="14.00">Tweet</text>
</g>
<!-- Tweet&#45;&gt;Tweet -->
<g id="edge2" class="edge">
<title>Tweet&#45;&gt;Tweet</title>
<path fill="none" stroke="#5c45cb" d="M166.44,-97.39C173.39,-96.59 178.27,-94.46 178.27,-91 178.27,-87.91 174.37,-85.88 168.58,-84.91"/>
<ellipse fill="none" stroke="#5c45cb" cx="162.21" cy="-97.57" rx="4" ry="4"/>
<polygon fill="#5c45cb" stroke="#5c45cb" points="168.19,-84.89 158.49,-79.77 163.2,-84.58 158.21,-84.26 158.21,-84.26 158.21,-84.26 163.2,-84.58 157.93,-88.76 168.19,-84.89 168.19,-84.89"/>
<text text-anchor="middle" x="201.59" y="-86.8" font-family="Times,serif" font-size="14.00">retweets</text>
</g>
<!-- Like -->
<g id="node3" class="node">
<title>Like</title>
<ellipse fill="none" stroke="black" cx="190.69" cy="-18" rx="27" ry="18"/>
<text text-anchor="middle" x="190.69" y="-13.8" font-family="Times,serif" font-size="14.00">Like</text>
</g>
<!-- Tweet&#45;&gt;Like -->
<g id="edge1" class="edge">
<title>Tweet&#45;&gt;Like</title>
<path fill="none" stroke="#8ccdfc" d="M147.62,-68.32C155,-59.87 163.45,-50.19 170.91,-41.65"/>
<ellipse fill="none" stroke="#8ccdfc" cx="144.77" cy="-71.58" rx="4" ry="4"/>
<polygon fill="#8ccdfc" stroke="#8ccdfc" points="171.11,-41.42 181.08,-36.85 174.4,-37.66 177.69,-33.89 177.69,-33.89 177.69,-33.89 174.4,-37.66 174.3,-30.93 171.11,-41.42 171.11,-41.42"/>
</g>
<!-- Friend -->
<g id="node4" class="node">
<title>Friend</title>
<ellipse fill="none" stroke="black" cx="313.69" cy="-91" rx="33.39" ry="18"/>
<text text-anchor="middle" x="313.69" y="-86.8" font-family="Times,serif" font-size="14.00">Friend</text>
</g>
<!-- AdminUser -->
<g id="node5" class="node">
<title>AdminUser</title>
<ellipse fill="none" stroke="black" cx="348.69" cy="-182.5" rx="51.24" ry="18"/>
<text text-anchor="middle" x="348.69" y="-178.3" font-family="Times,serif" font-size="14.00">AdminUser</text>
</g>
<!-- ApplicationRecord -->
<g id="node6" class="node">
<title>ApplicationRecord</title>
<ellipse fill="none" stroke="black" cx="495.69" cy="-182.5" rx="77.29" ry="18"/>
<text text-anchor="middle" x="495.69" y="-178.3" font-family="Times,serif" font-size="14.00">ApplicationRecord</text>
</g>
<!-- User -->
<g id="node7" class="node">
<title>User</title>
<ellipse fill="none" stroke="black" cx="252.69" cy="-182.5" rx="27" ry="18"/>
<text text-anchor="middle" x="252.69" y="-178.3" font-family="Times,serif" font-size="14.00">User</text>
</g>
<!-- User&#45;&gt;Tweet -->
<g id="edge3" class="edge">
<title>User&#45;&gt;Tweet</title>
<path fill="none" stroke="#efb833" d="M233.24,-160.73C228.08,-155.67 222.35,-150.43 216.69,-146 198.95,-132.11 177.41,-118.83 160.08,-108.93"/>
<ellipse fill="none" stroke="#efb833" cx="236.2" cy="-163.71" rx="4" ry="4"/>
<polygon fill="#efb833" stroke="#efb833" points="159.65,-108.69 153.14,-99.86 155.29,-106.24 150.94,-103.78 150.94,-103.78 150.94,-103.78 155.29,-106.24 148.73,-107.71 159.65,-108.69 159.65,-108.69"/>
</g>
<!-- User&#45;&gt;Like -->
<g id="edge4" class="edge">
<title>User&#45;&gt;Like</title>
<path fill="none" stroke="#26a98d" d="M251.78,-156.08C250.16,-133.4 245.73,-99.75 233.69,-73 228.44,-61.34 220.09,-50.01 212.14,-40.77"/>
<ellipse fill="none" stroke="#26a98d" cx="252.03" cy="-160.2" rx="4" ry="4"/>
<polygon fill="#26a98d" stroke="#26a98d" points="212.04,-40.66 208.69,-30.22 208.69,-36.94 205.35,-33.23 205.35,-33.23 205.35,-33.23 208.69,-36.94 202,-36.24 212.04,-40.66 212.04,-40.66"/>
</g>
<!-- User&#45;&gt;Friend -->
<g id="edge5" class="edge">
<title>User&#45;&gt;Friend</title>
<path fill="none" stroke="#27575a" d="M268.02,-159.01C276.81,-146.1 287.87,-129.88 296.9,-116.63"/>
<ellipse fill="none" stroke="#27575a" cx="265.57" cy="-162.6" rx="4" ry="4"/>
<polygon fill="#27575a" stroke="#27575a" points="297.14,-116.28 306.49,-110.55 299.96,-112.15 302.77,-108.01 302.77,-108.01 302.77,-108.01 299.96,-112.15 299.05,-105.48 297.14,-116.28 297.14,-116.28"/>
</g>
</g>
</svg>
