<?xml version="1.0" encoding="UTF-8" standalone="no"?>
<!DOCTYPE svg PUBLIC "-//W3C//DTD SVG 1.1//EN"
 "http://www.w3.org/Graphics/SVG/1.1/DTD/svg11.dtd">
<!-- Generated by graphviz version 2.42.3 (20191010.1750)
 -->
<!-- Title: models_diagram Pages: 1 -->
<svg width="460pt" height="227pt"
 viewBox="0.00 0.00 460.08 227.00" xmlns="http://www.w3.org/2000/svg" xmlns:xlink="http://www.w3.org/1999/xlink">
<g id="graph0" class="graph" transform="scale(1 1) rotate(0) translate(4 223)">
<title>models_diagram</title>
<polygon fill="transparent" stroke="transparent" points="-4,4 -4,-223 456.08,-223 456.08,4 -4,4"/>
<!-- _diagram_info -->
<g id="node1" class="node">
<title>_diagram_info</title>
<text text-anchor="start" x="8" y="-204.6" font-family="Times,serif" font-size="13.00">Models diagram</text>
<text text-anchor="start" x="8" y="-191.6" font-family="Times,serif" font-size="13.00">Date: Apr 28 2020 &#45; 14:43</text>
<text text-anchor="start" x="8" y="-178.6" font-family="Times,serif" font-size="13.00">Migration version: 20200428183514</text>
<text text-anchor="start" x="8" y="-165.6" font-family="Times,serif" font-size="13.00">Generated by RailRoady 1.5.3</text>
<text text-anchor="start" x="8" y="-152.6" font-family="Times,serif" font-size="13.00">http://railroady.prestonlee.com</text>
</g>
<!-- Tweet -->
<g id="node2" class="node">
<title>Tweet</title>
<ellipse fill="none" stroke="black" cx="165.69" cy="-91" rx="31.67" ry="18"/>
<text text-anchor="middle" x="165.69" y="-86.8" font-family="Times,serif" font-size="14.00">Tweet</text>
</g>
<!-- Tweet&#45;&gt;Tweet -->
<g id="edge2" class="edge">
<title>Tweet&#45;&gt;Tweet</title>
<path fill="none" stroke="#5aa6d6" d="M203.44,-97.39C210.39,-96.59 215.27,-94.46 215.27,-91 215.27,-87.91 211.37,-85.88 205.58,-84.91"/>
<ellipse fill="none" stroke="#5aa6d6" cx="199.21" cy="-97.57" rx="4" ry="4"/>
<polygon fill="#5aa6d6" stroke="#5aa6d6" points="205.19,-84.89 195.49,-79.77 200.2,-84.58 195.21,-84.26 195.21,-84.26 195.21,-84.26 200.2,-84.58 194.93,-88.76 205.19,-84.89 205.19,-84.89"/>
<text text-anchor="middle" x="238.59" y="-86.8" font-family="Times,serif" font-size="14.00">retweets</text>
</g>
<!-- Like -->
<g id="node3" class="node">
<title>Like</title>
<ellipse fill="none" stroke="black" cx="227.69" cy="-18" rx="27" ry="18"/>
<text text-anchor="middle" x="227.69" y="-13.8" font-family="Times,serif" font-size="14.00">Like</text>
</g>
<!-- Tweet&#45;&gt;Like -->
<g id="edge1" class="edge">
<title>Tweet&#45;&gt;Like</title>
<path fill="none" stroke="#3b20ea" d="M184.62,-68.32C192,-59.87 200.45,-50.19 207.91,-41.65"/>
<ellipse fill="none" stroke="#3b20ea" cx="181.77" cy="-71.58" rx="4" ry="4"/>
<polygon fill="#3b20ea" stroke="#3b20ea" points="208.11,-41.42 218.08,-36.85 211.4,-37.66 214.69,-33.89 214.69,-33.89 214.69,-33.89 211.4,-37.66 211.3,-30.93 208.11,-41.42 208.11,-41.42"/>
</g>
<!-- ApplicationRecord -->
<g id="node4" class="node">
<title>ApplicationRecord</title>
<ellipse fill="none" stroke="black" cx="374.69" cy="-182.5" rx="77.29" ry="18"/>
<text text-anchor="middle" x="374.69" y="-178.3" font-family="Times,serif" font-size="14.00">ApplicationRecord</text>
</g>
<!-- User -->
<g id="node5" class="node">
<title>User</title>
<ellipse fill="none" stroke="black" cx="252.69" cy="-182.5" rx="27" ry="18"/>
<text text-anchor="middle" x="252.69" y="-178.3" font-family="Times,serif" font-size="14.00">User</text>
</g>
<!-- User&#45;&gt;Tweet -->
<g id="edge3" class="edge">
<title>User&#45;&gt;Tweet</title>
<path fill="none" stroke="#0259bc" d="M232.74,-160.98C219.27,-147.12 201.48,-128.82 187.62,-114.56"/>
<ellipse fill="none" stroke="#0259bc" cx="235.53" cy="-163.85" rx="4" ry="4"/>
<polygon fill="#0259bc" stroke="#0259bc" points="187.34,-114.27 183.59,-103.96 183.85,-110.69 180.37,-107.1 180.37,-107.1 180.37,-107.1 183.85,-110.69 177.14,-110.24 187.34,-114.27 187.34,-114.27"/>
</g>
<!-- User&#45;&gt;Like -->
<g id="edge4" class="edge">
<title>User&#45;&gt;Like</title>
<path fill="none" stroke="#0eb159" d="M263.45,-157.19C271.8,-134.81 280.45,-100.93 270.69,-73 266.47,-60.93 258.29,-49.53 250.19,-40.35"/>
<ellipse fill="none" stroke="#0eb159" cx="261.88" cy="-161.17" rx="4" ry="4"/>
<polygon fill="#0eb159" stroke="#0eb159" points="250.04,-40.19 246.48,-29.81 246.62,-36.54 243.2,-32.89 243.2,-32.89 243.2,-32.89 246.62,-36.54 239.91,-35.97 250.04,-40.19 250.04,-40.19"/>
</g>
</g>
</svg>
