<?xml version="1.0" encoding="UTF-8" standalone="no"?>
<!DOCTYPE svg PUBLIC "-//W3C//DTD SVG 1.1//EN"
 "http://www.w3.org/Graphics/SVG/1.1/DTD/svg11.dtd">
<!-- Generated by graphviz version 2.42.3 (20191010.1750)
 -->
<!-- Title: models_diagram Pages: 1 -->
<svg width="834pt" height="483pt"
 viewBox="0.00 0.00 834.08 483.00" xmlns="http://www.w3.org/2000/svg" xmlns:xlink="http://www.w3.org/1999/xlink">
<g id="graph0" class="graph" transform="scale(1 1) rotate(0) translate(4 479)">
<title>models_diagram</title>
<polygon fill="transparent" stroke="transparent" points="-4,4 -4,-479 830.08,-479 830.08,4 -4,4"/>
<!-- _diagram_info -->
<g id="node1" class="node">
<title>_diagram_info</title>
<text text-anchor="start" x="8" y="-404.6" font-family="Times,serif" font-size="13.00">Models diagram</text>
<text text-anchor="start" x="8" y="-391.6" font-family="Times,serif" font-size="13.00">Date: May 11 2020 &#45; 23:58</text>
<text text-anchor="start" x="8" y="-378.6" font-family="Times,serif" font-size="13.00">Migration version: 20200512035316</text>
<text text-anchor="start" x="8" y="-365.6" font-family="Times,serif" font-size="13.00">Generated by RailRoady 1.5.3</text>
<text text-anchor="start" x="8" y="-352.6" font-family="Times,serif" font-size="13.00">http://railroady.prestonlee.com</text>
</g>
<!-- Tweet -->
<g id="node2" class="node">
<title>Tweet</title>
<path fill="none" stroke="black" d="M114.18,-138.5C114.18,-138.5 223.19,-138.5 223.19,-138.5 229.19,-138.5 235.19,-144.5 235.19,-150.5 235.19,-150.5 235.19,-240.5 235.19,-240.5 235.19,-246.5 229.19,-252.5 223.19,-252.5 223.19,-252.5 114.18,-252.5 114.18,-252.5 108.18,-252.5 102.18,-246.5 102.18,-240.5 102.18,-240.5 102.18,-150.5 102.18,-150.5 102.18,-144.5 108.18,-138.5 114.18,-138.5"/>
<text text-anchor="middle" x="168.69" y="-237.3" font-family="Times,serif" font-size="14.00">Tweet</text>
<polyline fill="none" stroke="black" points="102.18,-230.5 235.19,-230.5 "/>
<text text-anchor="start" x="110.18" y="-215.3" font-family="Times,serif" font-size="14.00">id :integer</text>
<text text-anchor="start" x="110.18" y="-201.3" font-family="Times,serif" font-size="14.00">user_id :integer</text>
<text text-anchor="start" x="110.18" y="-187.3" font-family="Times,serif" font-size="14.00">body :varchar</text>
<text text-anchor="start" x="110.18" y="-173.3" font-family="Times,serif" font-size="14.00">created_at :datetime</text>
<text text-anchor="start" x="110.18" y="-159.3" font-family="Times,serif" font-size="14.00">updated_at :datetime</text>
<text text-anchor="start" x="110.18" y="-145.3" font-family="Times,serif" font-size="14.00">retweet_id :integer</text>
</g>
<!-- Tweet&#45;&gt;Tweet -->
<g id="edge2" class="edge">
<title>Tweet&#45;&gt;Tweet</title>
<path fill="none" stroke="#7fcd46" d="M243.37,-206.42C249.43,-204.05 253.19,-200.41 253.19,-195.5 253.19,-191.02 250.06,-187.59 244.9,-185.23"/>
<ellipse fill="none" stroke="#7fcd46" cx="239.15" cy="-207.57" rx="4" ry="4"/>
<polygon fill="#7fcd46" stroke="#7fcd46" points="244.87,-185.22 236.57,-178.06 240.08,-183.8 235.29,-182.38 235.29,-182.38 235.29,-182.38 240.08,-183.8 234.01,-186.69 244.87,-185.22 244.87,-185.22"/>
<text text-anchor="middle" x="276.51" y="-191.3" font-family="Times,serif" font-size="14.00">retweets</text>
</g>
<!-- Like -->
<g id="node3" class="node">
<title>Like</title>
<path fill="none" stroke="black" d="M193.18,-0.5C193.18,-0.5 302.19,-0.5 302.19,-0.5 308.19,-0.5 314.19,-6.5 314.19,-12.5 314.19,-12.5 314.19,-88.5 314.19,-88.5 314.19,-94.5 308.19,-100.5 302.19,-100.5 302.19,-100.5 193.18,-100.5 193.18,-100.5 187.18,-100.5 181.18,-94.5 181.18,-88.5 181.18,-88.5 181.18,-12.5 181.18,-12.5 181.18,-6.5 187.18,-0.5 193.18,-0.5"/>
<text text-anchor="middle" x="247.69" y="-85.3" font-family="Times,serif" font-size="14.00">Like</text>
<polyline fill="none" stroke="black" points="181.18,-78.5 314.19,-78.5 "/>
<text text-anchor="start" x="189.18" y="-63.3" font-family="Times,serif" font-size="14.00">id :integer</text>
<text text-anchor="start" x="189.18" y="-49.3" font-family="Times,serif" font-size="14.00">user_id :integer</text>
<text text-anchor="start" x="189.18" y="-35.3" font-family="Times,serif" font-size="14.00">tweet_id :integer</text>
<text text-anchor="start" x="189.18" y="-21.3" font-family="Times,serif" font-size="14.00">created_at :datetime</text>
<text text-anchor="start" x="189.18" y="-7.3" font-family="Times,serif" font-size="14.00">updated_at :datetime</text>
</g>
<!-- Tweet&#45;&gt;Like -->
<g id="edge1" class="edge">
<title>Tweet&#45;&gt;Like</title>
<path fill="none" stroke="#ddc23c" d="M203.56,-131.38C207.52,-124.21 211.54,-116.93 215.47,-109.83"/>
<ellipse fill="none" stroke="#ddc23c" cx="201.62" cy="-134.89" rx="4" ry="4"/>
<polygon fill="#ddc23c" stroke="#ddc23c" points="215.54,-109.7 224.31,-103.12 217.95,-105.32 220.37,-100.95 220.37,-100.95 220.37,-100.95 217.95,-105.32 216.43,-98.77 215.54,-109.7 215.54,-109.7"/>
</g>
<!-- Friend -->
<g id="node4" class="node">
<title>Friend</title>
<path fill="none" stroke="black" d="M368.18,-152.5C368.18,-152.5 477.19,-152.5 477.19,-152.5 483.19,-152.5 489.19,-158.5 489.19,-164.5 489.19,-164.5 489.19,-226.5 489.19,-226.5 489.19,-232.5 483.19,-238.5 477.19,-238.5 477.19,-238.5 368.18,-238.5 368.18,-238.5 362.18,-238.5 356.18,-232.5 356.18,-226.5 356.18,-226.5 356.18,-164.5 356.18,-164.5 356.18,-158.5 362.18,-152.5 368.18,-152.5"/>
<text text-anchor="middle" x="422.69" y="-223.3" font-family="Times,serif" font-size="14.00">Friend</text>
<polyline fill="none" stroke="black" points="356.18,-216.5 489.19,-216.5 "/>
<text text-anchor="start" x="364.18" y="-201.3" font-family="Times,serif" font-size="14.00">id :integer</text>
<text text-anchor="start" x="364.18" y="-187.3" font-family="Times,serif" font-size="14.00">user_id :integer</text>
<text text-anchor="start" x="364.18" y="-173.3" font-family="Times,serif" font-size="14.00">created_at :datetime</text>
<text text-anchor="start" x="364.18" y="-159.3" font-family="Times,serif" font-size="14.00">updated_at :datetime</text>
</g>
<!-- AdminUser -->
<g id="node5" class="node">
<title>AdminUser</title>
<path fill="none" stroke="black" d="M460.41,-311.5C460.41,-311.5 640.97,-311.5 640.97,-311.5 646.97,-311.5 652.97,-317.5 652.97,-323.5 652.97,-323.5 652.97,-441.5 652.97,-441.5 652.97,-447.5 646.97,-453.5 640.97,-453.5 640.97,-453.5 460.41,-453.5 460.41,-453.5 454.41,-453.5 448.41,-447.5 448.41,-441.5 448.41,-441.5 448.41,-323.5 448.41,-323.5 448.41,-317.5 454.41,-311.5 460.41,-311.5"/>
<text text-anchor="middle" x="550.69" y="-438.3" font-family="Times,serif" font-size="14.00">AdminUser</text>
<polyline fill="none" stroke="black" points="448.41,-431.5 652.97,-431.5 "/>
<text text-anchor="start" x="456.41" y="-416.3" font-family="Times,serif" font-size="14.00">updated_at :datetime</text>
<text text-anchor="start" x="456.41" y="-402.3" font-family="Times,serif" font-size="14.00">email :varchar</text>
<text text-anchor="start" x="456.41" y="-388.3" font-family="Times,serif" font-size="14.00">encrypted_password :varchar</text>
<text text-anchor="start" x="456.41" y="-374.3" font-family="Times,serif" font-size="14.00">reset_password_token :varchar</text>
<text text-anchor="start" x="456.41" y="-360.3" font-family="Times,serif" font-size="14.00">reset_password_sent_at :datetime</text>
<text text-anchor="start" x="456.41" y="-346.3" font-family="Times,serif" font-size="14.00">remember_created_at :datetime</text>
<text text-anchor="start" x="456.41" y="-332.3" font-family="Times,serif" font-size="14.00">created_at :datetime</text>
<text text-anchor="start" x="456.41" y="-318.3" font-family="Times,serif" font-size="14.00">id :integer</text>
</g>
<!-- ApplicationRecord -->
<g id="node6" class="node">
<title>ApplicationRecord</title>
<ellipse fill="none" stroke="black" cx="748.69" cy="-382.5" rx="77.29" ry="18"/>
<text text-anchor="middle" x="748.69" y="-378.3" font-family="Times,serif" font-size="14.00">ApplicationRecord</text>
</g>
<!-- User -->
<g id="node7" class="node">
<title>User</title>
<path fill="none" stroke="black" d="M237.41,-290.5C237.41,-290.5 417.97,-290.5 417.97,-290.5 423.97,-290.5 429.97,-296.5 429.97,-302.5 429.97,-302.5 429.97,-462.5 429.97,-462.5 429.97,-468.5 423.97,-474.5 417.97,-474.5 417.97,-474.5 237.41,-474.5 237.41,-474.5 231.41,-474.5 225.41,-468.5 225.41,-462.5 225.41,-462.5 225.41,-302.5 225.41,-302.5 225.41,-296.5 231.41,-290.5 237.41,-290.5"/>
<text text-anchor="middle" x="327.69" y="-459.3" font-family="Times,serif" font-size="14.00">User</text>
<polyline fill="none" stroke="black" points="225.41,-452.5 429.97,-452.5 "/>
<text text-anchor="start" x="233.41" y="-437.3" font-family="Times,serif" font-size="14.00">active :boolean</text>
<text text-anchor="start" x="233.41" y="-423.3" font-family="Times,serif" font-size="14.00">email :varchar</text>
<text text-anchor="start" x="233.41" y="-409.3" font-family="Times,serif" font-size="14.00">encrypted_password :varchar</text>
<text text-anchor="start" x="233.41" y="-395.3" font-family="Times,serif" font-size="14.00">reset_password_token :varchar</text>
<text text-anchor="start" x="233.41" y="-381.3" font-family="Times,serif" font-size="14.00">reset_password_sent_at :datetime</text>
<text text-anchor="start" x="233.41" y="-367.3" font-family="Times,serif" font-size="14.00">remember_created_at :datetime</text>
<text text-anchor="start" x="233.41" y="-353.3" font-family="Times,serif" font-size="14.00">created_at :datetime</text>
<text text-anchor="start" x="233.41" y="-339.3" font-family="Times,serif" font-size="14.00">updated_at :datetime</text>
<text text-anchor="start" x="233.41" y="-325.3" font-family="Times,serif" font-size="14.00">username :varchar</text>
<text text-anchor="start" x="233.41" y="-311.3" font-family="Times,serif" font-size="14.00">avatar :varchar</text>
<text text-anchor="start" x="233.41" y="-297.3" font-family="Times,serif" font-size="14.00">id :integer</text>
</g>
<!-- User&#45;&gt;Tweet -->
<g id="edge3" class="edge">
<title>User&#45;&gt;Tweet</title>
<path fill="none" stroke="#75f8f8" d="M243.91,-284.03C236.99,-275.97 230.11,-267.97 223.49,-260.26"/>
<ellipse fill="none" stroke="#75f8f8" cx="246.75" cy="-287.32" rx="4" ry="4"/>
<polygon fill="#75f8f8" stroke="#75f8f8" points="223.48,-260.25 220.37,-249.73 220.22,-256.46 216.96,-252.66 216.96,-252.66 216.96,-252.66 220.22,-256.46 213.55,-255.6 223.48,-260.25 223.48,-260.25"/>
</g>
<!-- User&#45;&gt;Like -->
<g id="edge4" class="edge">
<title>User&#45;&gt;Like</title>
<path fill="none" stroke="#5363b7" d="M331.78,-282.28C330.68,-237.09 325.14,-183.63 308.69,-138 305.15,-128.17 300.17,-118.45 294.57,-109.26"/>
<ellipse fill="none" stroke="#5363b7" cx="331.86" cy="-286.33" rx="4" ry="4"/>
<polygon fill="#5363b7" stroke="#5363b7" points="294.44,-109.05 292.83,-98.2 291.74,-104.84 289.04,-100.63 289.04,-100.63 289.04,-100.63 291.74,-104.84 285.25,-103.06 294.44,-109.05 294.44,-109.05"/>
</g>
<!-- User&#45;&gt;Friend -->
<g id="edge5" class="edge">
<title>User&#45;&gt;Friend</title>
<path fill="none" stroke="#ebda40" d="M378.19,-283.16C384.46,-270.95 390.66,-258.87 396.35,-247.79"/>
<ellipse fill="none" stroke="#ebda40" cx="376.32" cy="-286.8" rx="4" ry="4"/>
<polygon fill="#ebda40" stroke="#ebda40" points="396.44,-247.62 405.01,-240.78 398.72,-243.17 401,-238.73 401,-238.73 401,-238.73 398.72,-243.17 397,-236.67 396.44,-247.62 396.44,-247.62"/>
</g>
</g>
</svg>
