<?xml version="1.0" encoding="UTF-8" standalone="no"?>
<!DOCTYPE svg PUBLIC "-//W3C//DTD SVG 1.1//EN"
 "http://www.w3.org/Graphics/SVG/1.1/DTD/svg11.dtd">
<!-- Generated by graphviz version 2.42.3 (20191010.1750)
 -->
<!-- Title: models_diagram Pages: 1 -->
<svg width="611pt" height="469pt"
 viewBox="0.00 0.00 611.08 469.00" xmlns="http://www.w3.org/2000/svg" xmlns:xlink="http://www.w3.org/1999/xlink">
<g id="graph0" class="graph" transform="scale(1 1) rotate(0) translate(4 465)">
<title>models_diagram</title>
<polygon fill="transparent" stroke="transparent" points="-4,4 -4,-465 607.08,-465 607.08,4 -4,4"/>
<!-- _diagram_info -->
<g id="node1" class="node">
<title>_diagram_info</title>
<text text-anchor="start" x="8" y="-397.6" font-family="Times,serif" font-size="13.00">Models diagram</text>
<text text-anchor="start" x="8" y="-384.6" font-family="Times,serif" font-size="13.00">Date: Apr 28 2020 &#45; 14:43</text>
<text text-anchor="start" x="8" y="-371.6" font-family="Times,serif" font-size="13.00">Migration version: 20200428183514</text>
<text text-anchor="start" x="8" y="-358.6" font-family="Times,serif" font-size="13.00">Generated by RailRoady 1.5.3</text>
<text text-anchor="start" x="8" y="-345.6" font-family="Times,serif" font-size="13.00">http://railroady.prestonlee.com</text>
</g>
<!-- Tweet -->
<g id="node2" class="node">
<title>Tweet</title>
<path fill="none" stroke="black" d="M160.18,-138.5C160.18,-138.5 269.19,-138.5 269.19,-138.5 275.19,-138.5 281.19,-144.5 281.19,-150.5 281.19,-150.5 281.19,-240.5 281.19,-240.5 281.19,-246.5 275.19,-252.5 269.19,-252.5 269.19,-252.5 160.18,-252.5 160.18,-252.5 154.18,-252.5 148.18,-246.5 148.18,-240.5 148.18,-240.5 148.18,-150.5 148.18,-150.5 148.18,-144.5 154.18,-138.5 160.18,-138.5"/>
<text text-anchor="middle" x="214.69" y="-237.3" font-family="Times,serif" font-size="14.00">Tweet</text>
<polyline fill="none" stroke="black" points="148.18,-230.5 281.19,-230.5 "/>
<text text-anchor="start" x="156.18" y="-215.3" font-family="Times,serif" font-size="14.00">id :integer</text>
<text text-anchor="start" x="156.18" y="-201.3" font-family="Times,serif" font-size="14.00">user_id :integer</text>
<text text-anchor="start" x="156.18" y="-187.3" font-family="Times,serif" font-size="14.00">body :varchar</text>
<text text-anchor="start" x="156.18" y="-173.3" font-family="Times,serif" font-size="14.00">created_at :datetime</text>
<text text-anchor="start" x="156.18" y="-159.3" font-family="Times,serif" font-size="14.00">updated_at :datetime</text>
<text text-anchor="start" x="156.18" y="-145.3" font-family="Times,serif" font-size="14.00">retweet_id :integer</text>
</g>
<!-- Tweet&#45;&gt;Tweet -->
<g id="edge2" class="edge">
<title>Tweet&#45;&gt;Tweet</title>
<path fill="none" stroke="#3c9aa0" d="M289.37,-206.42C295.43,-204.05 299.19,-200.41 299.19,-195.5 299.19,-191.02 296.06,-187.59 290.9,-185.23"/>
<ellipse fill="none" stroke="#3c9aa0" cx="285.15" cy="-207.57" rx="4" ry="4"/>
<polygon fill="#3c9aa0" stroke="#3c9aa0" points="290.87,-185.22 282.57,-178.06 286.08,-183.8 281.29,-182.38 281.29,-182.38 281.29,-182.38 286.08,-183.8 280.01,-186.69 290.87,-185.22 290.87,-185.22"/>
<text text-anchor="middle" x="322.51" y="-191.3" font-family="Times,serif" font-size="14.00">retweets</text>
</g>
<!-- Like -->
<g id="node3" class="node">
<title>Like</title>
<path fill="none" stroke="black" d="M239.18,-0.5C239.18,-0.5 348.19,-0.5 348.19,-0.5 354.19,-0.5 360.19,-6.5 360.19,-12.5 360.19,-12.5 360.19,-88.5 360.19,-88.5 360.19,-94.5 354.19,-100.5 348.19,-100.5 348.19,-100.5 239.18,-100.5 239.18,-100.5 233.18,-100.5 227.18,-94.5 227.18,-88.5 227.18,-88.5 227.18,-12.5 227.18,-12.5 227.18,-6.5 233.18,-0.5 239.18,-0.5"/>
<text text-anchor="middle" x="293.69" y="-85.3" font-family="Times,serif" font-size="14.00">Like</text>
<polyline fill="none" stroke="black" points="227.18,-78.5 360.19,-78.5 "/>
<text text-anchor="start" x="235.18" y="-63.3" font-family="Times,serif" font-size="14.00">id :integer</text>
<text text-anchor="start" x="235.18" y="-49.3" font-family="Times,serif" font-size="14.00">user_id :integer</text>
<text text-anchor="start" x="235.18" y="-35.3" font-family="Times,serif" font-size="14.00">tweet_id :integer</text>
<text text-anchor="start" x="235.18" y="-21.3" font-family="Times,serif" font-size="14.00">created_at :datetime</text>
<text text-anchor="start" x="235.18" y="-7.3" font-family="Times,serif" font-size="14.00">updated_at :datetime</text>
</g>
<!-- Tweet&#45;&gt;Like -->
<g id="edge1" class="edge">
<title>Tweet&#45;&gt;Like</title>
<path fill="none" stroke="#d01c98" d="M249.56,-131.38C253.52,-124.21 257.54,-116.93 261.47,-109.83"/>
<ellipse fill="none" stroke="#d01c98" cx="247.62" cy="-134.89" rx="4" ry="4"/>
<polygon fill="#d01c98" stroke="#d01c98" points="261.54,-109.7 270.31,-103.12 263.95,-105.32 266.37,-100.95 266.37,-100.95 266.37,-100.95 263.95,-105.32 262.43,-98.77 261.54,-109.7 261.54,-109.7"/>
</g>
<!-- ApplicationRecord -->
<g id="node4" class="node">
<title>ApplicationRecord</title>
<ellipse fill="none" stroke="black" cx="525.69" cy="-375.5" rx="77.29" ry="18"/>
<text text-anchor="middle" x="525.69" y="-371.3" font-family="Times,serif" font-size="14.00">ApplicationRecord</text>
</g>
<!-- User -->
<g id="node5" class="node">
<title>User</title>
<path fill="none" stroke="black" d="M237.41,-290.5C237.41,-290.5 417.97,-290.5 417.97,-290.5 423.97,-290.5 429.97,-296.5 429.97,-302.5 429.97,-302.5 429.97,-448.5 429.97,-448.5 429.97,-454.5 423.97,-460.5 417.97,-460.5 417.97,-460.5 237.41,-460.5 237.41,-460.5 231.41,-460.5 225.41,-454.5 225.41,-448.5 225.41,-448.5 225.41,-302.5 225.41,-302.5 225.41,-296.5 231.41,-290.5 237.41,-290.5"/>
<text text-anchor="middle" x="327.69" y="-445.3" font-family="Times,serif" font-size="14.00">User</text>
<polyline fill="none" stroke="black" points="225.41,-438.5 429.97,-438.5 "/>
<text text-anchor="start" x="233.41" y="-423.3" font-family="Times,serif" font-size="14.00">avatar :varchar</text>
<text text-anchor="start" x="233.41" y="-409.3" font-family="Times,serif" font-size="14.00">email :varchar</text>
<text text-anchor="start" x="233.41" y="-395.3" font-family="Times,serif" font-size="14.00">encrypted_password :varchar</text>
<text text-anchor="start" x="233.41" y="-381.3" font-family="Times,serif" font-size="14.00">reset_password_token :varchar</text>
<text text-anchor="start" x="233.41" y="-367.3" font-family="Times,serif" font-size="14.00">reset_password_sent_at :datetime</text>
<text text-anchor="start" x="233.41" y="-353.3" font-family="Times,serif" font-size="14.00">remember_created_at :datetime</text>
<text text-anchor="start" x="233.41" y="-339.3" font-family="Times,serif" font-size="14.00">created_at :datetime</text>
<text text-anchor="start" x="233.41" y="-325.3" font-family="Times,serif" font-size="14.00">updated_at :datetime</text>
<text text-anchor="start" x="233.41" y="-311.3" font-family="Times,serif" font-size="14.00">username :varchar</text>
<text text-anchor="start" x="233.41" y="-297.3" font-family="Times,serif" font-size="14.00">id :integer</text>
</g>
<!-- User&#45;&gt;Tweet -->
<g id="edge3" class="edge">
<title>User&#45;&gt;Tweet</title>
<path fill="none" stroke="#cae74a" d="M269.92,-283.51C265.1,-275.91 260.29,-268.33 255.63,-260.99"/>
<ellipse fill="none" stroke="#cae74a" cx="272.19" cy="-287.07" rx="4" ry="4"/>
<polygon fill="#cae74a" stroke="#cae74a" points="255.6,-260.94 254.04,-250.09 252.92,-256.72 250.24,-252.5 250.24,-252.5 250.24,-252.5 252.92,-256.72 246.44,-254.91 255.6,-260.94 255.6,-260.94"/>
</g>
<!-- User&#45;&gt;Like -->
<g id="edge4" class="edge">
<title>User&#45;&gt;Like</title>
<path fill="none" stroke="#78f160" d="M355.69,-282.58C364.87,-238.07 369.39,-184.36 354.69,-138 351.57,-128.18 346.9,-118.51 341.49,-109.39"/>
<ellipse fill="none" stroke="#78f160" cx="354.83" cy="-286.59" rx="4" ry="4"/>
<polygon fill="#78f160" stroke="#78f160" points="341.43,-109.31 339.92,-98.45 338.77,-105.07 336.11,-100.84 336.11,-100.84 336.11,-100.84 338.77,-105.07 332.3,-103.24 341.43,-109.31 341.43,-109.31"/>
</g>
</g>
</svg>
